# xmcd
# 
# Track frame offsets:
#     150
#     15269
#     26661
#     41061
#     49500
#     67612
#     92804
#     105524
#     115301
#     131285
#     147677
#     167059
#     172814
# 
# Disc length: 2378
# 
# Revision: 3015
# Processed by: cddbd v1.5.2PL0 Copyright (c) Steve Scherf et al.
# Submitted via: BonkEnc v1.0.8
# 
DISCID=9e09480d
DTITLE=Pink Floyd - The Wall [CD1 of 2)
DYEAR=0
DGENRE=
TTITLE0=In The Flesh?
TTITLE1=The Thin Ice
TTITLE2=Another Brick In The Wall (Part I)
TTITLE3=The Happiest Days Of Our Lives
TTITLE4=Another Brick In The Wall (Part II)
TTITLE5=Mother
TTITLE6=Goodbye Blue Sky
TTITLE7=Empty Spaces
TTITLE8=Young Lust
TTITLE9=One Of My Turns
TTITLE10=Don't Leave Me Now
TTITLE11=Another Brick In The Wall (Part III)
TTITLE12=Goodbye Cruel World
EXTD=
EXTT0=So Ya\nthought Ya\nmight Like To Go To The Show\nto Feel The Warm T
EXTT1=Mamma Loves Her Baby\nand Daddy Loves You Too\nand The Sea May Loo
EXTT2=Daddy's Flown Across The Ocean\nleaving Just A Memory\na Snap Shot
EXTT3=When We Grew Up And Went To School\nthere Were Certain Teachers W
EXTT4=We Don't Need No Education\nwe Don't Need No Thought Control\nno D
EXTT5=Mother Do You Think They'll Drop The Bomb\nmother Do You Think Th
EXTT6=Hey Mommy\nthere's An Airplane Up In The Sky\n\nooooooooooooooooh\nd
EXTT7=What Shall We Use To Fill The Empty\nspaces Where We Used To Talk
EXTT8=I Am Just A New Boy\na Stranger In This Town\nwhere Are All The Go
EXTT9=Oh My God, What A Fabulous Room!\nare All These Your Guitars?\ngod
EXTT10=Ooooh Babe\ndon't Leave Me Now\ndon't Say It's The End Of The Road
EXTT11=I Don't Need No Arms Around Me\ni Don't Need No Drugs To Calm Me\n
EXTT12=Goodbye Cruel World\ni'm Leaving You Today\ngoodbye\ngoodbye\ngoodby
PLAYORDER=
